<mxfile host="app.diagrams.net" agent="Mozilla/5.0 (Macintosh; Intel Mac OS X 10_15_7) AppleWebKit/537.36 (KHTML, like Gecko) Chrome/127.0.0.0 Safari/537.36" version="24.7.7">
  <diagram name="第 1 页" id="zQPuNM7zzIkmw82SUkmU">
    <mxGraphModel dx="1266" dy="547" grid="1" gridSize="10" guides="1" tooltips="1" connect="1" arrows="1" fold="1" page="1" pageScale="1" pageWidth="827" pageHeight="1169" math="0" shadow="0">
      <root>
        <mxCell id="0" />
        <mxCell id="1" parent="0" />
        <mxCell id="H-o6Q9arv2Ycfd725hF4-22" style="edgeStyle=orthogonalEdgeStyle;rounded=0;orthogonalLoop=1;jettySize=auto;html=1;exitX=0.5;exitY=1;exitDx=0;exitDy=0;" edge="1" parent="1" source="H-o6Q9arv2Ycfd725hF4-1" target="H-o6Q9arv2Ycfd725hF4-6">
          <mxGeometry relative="1" as="geometry" />
        </mxCell>
        <mxCell id="H-o6Q9arv2Ycfd725hF4-23" style="edgeStyle=orthogonalEdgeStyle;rounded=0;orthogonalLoop=1;jettySize=auto;html=1;exitX=0.5;exitY=1;exitDx=0;exitDy=0;entryX=0.5;entryY=0;entryDx=0;entryDy=0;" edge="1" parent="1" source="H-o6Q9arv2Ycfd725hF4-1" target="H-o6Q9arv2Ycfd725hF4-7">
          <mxGeometry relative="1" as="geometry" />
        </mxCell>
        <mxCell id="H-o6Q9arv2Ycfd725hF4-24" style="edgeStyle=orthogonalEdgeStyle;rounded=0;orthogonalLoop=1;jettySize=auto;html=1;exitX=0.5;exitY=1;exitDx=0;exitDy=0;entryX=0.5;entryY=0;entryDx=0;entryDy=0;" edge="1" parent="1" source="H-o6Q9arv2Ycfd725hF4-1" target="H-o6Q9arv2Ycfd725hF4-8">
          <mxGeometry relative="1" as="geometry" />
        </mxCell>
        <mxCell id="H-o6Q9arv2Ycfd725hF4-1" value="ODPS keyword" style="rounded=1;whiteSpace=wrap;html=1;" vertex="1" parent="1">
          <mxGeometry x="304" y="160" width="110" height="40" as="geometry" />
        </mxCell>
        <mxCell id="H-o6Q9arv2Ycfd725hF4-4" style="edgeStyle=orthogonalEdgeStyle;rounded=0;orthogonalLoop=1;jettySize=auto;html=1;exitX=0.5;exitY=1;exitDx=0;exitDy=0;entryX=0.25;entryY=0;entryDx=0;entryDy=0;" edge="1" parent="1" source="H-o6Q9arv2Ycfd725hF4-2" target="H-o6Q9arv2Ycfd725hF4-1">
          <mxGeometry relative="1" as="geometry" />
        </mxCell>
        <mxCell id="H-o6Q9arv2Ycfd725hF4-2" value="GSC" style="rounded=1;whiteSpace=wrap;html=1;" vertex="1" parent="1">
          <mxGeometry x="200" y="80" width="110" height="40" as="geometry" />
        </mxCell>
        <mxCell id="H-o6Q9arv2Ycfd725hF4-3" value="Onsite" style="rounded=1;whiteSpace=wrap;html=1;" vertex="1" parent="1">
          <mxGeometry x="400" y="80" width="110" height="40" as="geometry" />
        </mxCell>
        <mxCell id="H-o6Q9arv2Ycfd725hF4-5" style="edgeStyle=orthogonalEdgeStyle;rounded=0;orthogonalLoop=1;jettySize=auto;html=1;exitX=0.5;exitY=1;exitDx=0;exitDy=0;entryX=0.7;entryY=-0.037;entryDx=0;entryDy=0;entryPerimeter=0;" edge="1" parent="1" source="H-o6Q9arv2Ycfd725hF4-3" target="H-o6Q9arv2Ycfd725hF4-1">
          <mxGeometry relative="1" as="geometry" />
        </mxCell>
        <mxCell id="H-o6Q9arv2Ycfd725hF4-6" value="wlw.de" style="rounded=1;whiteSpace=wrap;html=1;" vertex="1" parent="1">
          <mxGeometry x="120" y="240" width="110" height="40" as="geometry" />
        </mxCell>
        <mxCell id="H-o6Q9arv2Ycfd725hF4-7" value="europages.co.uk/en" style="rounded=1;whiteSpace=wrap;html=1;" vertex="1" parent="1">
          <mxGeometry x="304" y="240" width="110" height="40" as="geometry" />
        </mxCell>
        <mxCell id="H-o6Q9arv2Ycfd725hF4-8" value="europages.fr/fr" style="rounded=1;whiteSpace=wrap;html=1;" vertex="1" parent="1">
          <mxGeometry x="520" y="240" width="110" height="40" as="geometry" />
        </mxCell>
        <mxCell id="H-o6Q9arv2Ycfd725hF4-10" value="wlw.de" style="rounded=1;whiteSpace=wrap;html=1;" vertex="1" parent="1">
          <mxGeometry x="120" y="480" width="110" height="40" as="geometry" />
        </mxCell>
        <mxCell id="H-o6Q9arv2Ycfd725hF4-11" value="europages.co.uk/en" style="rounded=1;whiteSpace=wrap;html=1;" vertex="1" parent="1">
          <mxGeometry x="304" y="480" width="110" height="40" as="geometry" />
        </mxCell>
        <mxCell id="H-o6Q9arv2Ycfd725hF4-12" value="europages.fr/fr" style="rounded=1;whiteSpace=wrap;html=1;" vertex="1" parent="1">
          <mxGeometry x="520" y="480" width="110" height="40" as="geometry" />
        </mxCell>
        <mxCell id="H-o6Q9arv2Ycfd725hF4-15" value="" style="endArrow=classic;html=1;rounded=0;exitX=0.5;exitY=1;exitDx=0;exitDy=0;entryX=0.5;entryY=0;entryDx=0;entryDy=0;" edge="1" parent="1" source="H-o6Q9arv2Ycfd725hF4-6" target="H-o6Q9arv2Ycfd725hF4-11">
          <mxGeometry width="50" height="50" relative="1" as="geometry">
            <mxPoint x="300" y="370" as="sourcePoint" />
            <mxPoint x="350" y="320" as="targetPoint" />
          </mxGeometry>
        </mxCell>
        <mxCell id="H-o6Q9arv2Ycfd725hF4-17" value="" style="endArrow=classic;html=1;rounded=0;exitX=0.5;exitY=1;exitDx=0;exitDy=0;entryX=0.5;entryY=0;entryDx=0;entryDy=0;" edge="1" parent="1" source="H-o6Q9arv2Ycfd725hF4-6" target="H-o6Q9arv2Ycfd725hF4-12">
          <mxGeometry width="50" height="50" relative="1" as="geometry">
            <mxPoint x="300" y="370" as="sourcePoint" />
            <mxPoint x="350" y="320" as="targetPoint" />
          </mxGeometry>
        </mxCell>
        <mxCell id="H-o6Q9arv2Ycfd725hF4-18" value="" style="endArrow=classic;html=1;rounded=0;exitX=0.5;exitY=1;exitDx=0;exitDy=0;entryX=0.5;entryY=0;entryDx=0;entryDy=0;" edge="1" parent="1" source="H-o6Q9arv2Ycfd725hF4-7" target="H-o6Q9arv2Ycfd725hF4-10">
          <mxGeometry width="50" height="50" relative="1" as="geometry">
            <mxPoint x="300" y="370" as="sourcePoint" />
            <mxPoint x="350" y="320" as="targetPoint" />
          </mxGeometry>
        </mxCell>
        <mxCell id="H-o6Q9arv2Ycfd725hF4-19" value="" style="endArrow=classic;html=1;rounded=0;exitX=0.5;exitY=1;exitDx=0;exitDy=0;entryX=0.5;entryY=0;entryDx=0;entryDy=0;" edge="1" parent="1" source="H-o6Q9arv2Ycfd725hF4-7" target="H-o6Q9arv2Ycfd725hF4-12">
          <mxGeometry width="50" height="50" relative="1" as="geometry">
            <mxPoint x="300" y="370" as="sourcePoint" />
            <mxPoint x="350" y="320" as="targetPoint" />
          </mxGeometry>
        </mxCell>
        <mxCell id="H-o6Q9arv2Ycfd725hF4-20" value="" style="endArrow=classic;html=1;rounded=0;exitX=0.5;exitY=1;exitDx=0;exitDy=0;entryX=0.5;entryY=0;entryDx=0;entryDy=0;" edge="1" parent="1" source="H-o6Q9arv2Ycfd725hF4-8" target="H-o6Q9arv2Ycfd725hF4-10">
          <mxGeometry width="50" height="50" relative="1" as="geometry">
            <mxPoint x="300" y="370" as="sourcePoint" />
            <mxPoint x="180" y="480" as="targetPoint" />
          </mxGeometry>
        </mxCell>
        <mxCell id="H-o6Q9arv2Ycfd725hF4-21" value="" style="endArrow=classic;html=1;rounded=0;exitX=0.5;exitY=1;exitDx=0;exitDy=0;entryX=0.5;entryY=0;entryDx=0;entryDy=0;" edge="1" parent="1" source="H-o6Q9arv2Ycfd725hF4-8" target="H-o6Q9arv2Ycfd725hF4-11">
          <mxGeometry width="50" height="50" relative="1" as="geometry">
            <mxPoint x="300" y="370" as="sourcePoint" />
            <mxPoint x="350" y="320" as="targetPoint" />
          </mxGeometry>
        </mxCell>
        <mxCell id="H-o6Q9arv2Ycfd725hF4-9" value="translate engine" style="rounded=1;whiteSpace=wrap;html=1;" vertex="1" parent="1">
          <mxGeometry x="120" y="360" width="510" height="40" as="geometry" />
        </mxCell>
      </root>
    </mxGraphModel>
  </diagram>
</mxfile>
